<svg width="97" height="85" viewBox="0 0 97 85" fill="none" xmlns="http://www.w3.org/2000/svg">
<path d="M70.5671 32.372C67.1235 36.0337 64.3042 39.9997 61.2203 43.9957C58.1713 47.827 54.4139 52.9718 49.7662 55.0013C49.2021 55.2263 48.6379 55.4512 47.909 55.6413C46.4977 48.8862 42.0155 41.9977 36.0276 39.7836C31.7826 38.2826 28.618 40.626 26.6275 44.3369C23.5593 49.8858 28.43 54.5322 33.0647 56.6321C36.5157 58.2233 41.0301 59.2647 45.1944 59.1129C45.4002 61.3947 45.1116 63.5719 44.2289 65.7094C41.785 71.5626 34.6209 74.0926 28.7834 73.2016C15.6903 71.2056 4.61225 54.3988 9.83915 41.9033C10.1783 41.1142 9.15947 40.6403 8.75535 41.3296C1.95027 53.1468 11.0699 67.8174 21.6734 73.8491C31.7524 79.5116 46.4354 75.2154 48.2919 62.7814C48.4711 61.528 48.4205 60.1399 48.3699 58.7518C49.3634 58.5317 50.357 58.3115 51.2206 57.8916C55.469 56.122 58.9522 51.8661 61.8317 48.4294C65.6144 43.9786 68.9075 38.9938 72.92 34.6778C74.2274 32.9745 71.9046 30.9334 70.5671 32.372ZM30.8752 51.5201C27.0439 48.4711 30.0013 41.0048 34.8706 42.81C38.7859 44.2412 41.5792 48.534 43.2237 52.1533C43.7386 53.3814 44.2535 54.6095 44.5687 55.9675C39.7453 55.9798 34.117 54.1 30.8752 51.5201Z" fill="#1D1D1B"/>
<path d="M84.7924 21.6953C76.9391 23.8211 68.7563 25.8772 61.7379 30.1598C60.7395 30.8094 61.5792 32.5366 62.6425 31.9869C69.0174 29.1177 75.5476 27.1423 82.3376 25.5661C80.4073 29.8063 78.4722 34.4759 78.8537 38.7749C78.9994 40.5274 81.4412 40.7859 81.8897 39.073C83.1705 33.8345 84.5463 28.9605 86.7159 23.9962C87.4243 22.6827 86.2503 21.3151 84.7924 21.6953Z" fill="#1D1D1B"/>
</svg>
