<svg width="85" height="46" viewBox="0 0 85 46" fill="none" xmlns="http://www.w3.org/2000/svg">
<path d="M22.6045 12.1739L11.2403 9.84684L10.5663 13.1385C11.1536 12.7961 11.8659 12.5744 12.7031 12.4737C13.5665 12.3783 14.4945 12.4322 15.4872 12.6355C17.2637 12.9993 18.6803 13.7249 19.7369 14.8123C20.7936 15.8997 21.4779 17.2103 21.7899 18.7441C22.1072 20.2517 22.092 21.8546 21.7443 23.5527C21.1023 26.6876 19.7139 28.9484 17.579 30.335C15.4756 31.7008 12.8825 32.068 9.79983 31.4368C7.55312 30.9767 5.68709 30.1863 4.20173 29.0655C2.7425 27.9501 1.7236 26.6118 1.14502 25.0507C0.592566 23.4949 0.524354 21.8341 0.940381 20.0683L9.40474 21.8016C9.31914 22.2196 9.38258 22.6409 9.59506 23.0655C9.80753 23.4901 10.2403 23.7693 10.8934 23.903C11.5466 24.0367 12.078 23.9006 12.4878 23.4945C12.8976 23.0885 13.1854 22.4805 13.3512 21.6707C13.5064 20.9131 13.4412 20.3009 13.1557 19.8341C12.8963 19.3727 12.4401 19.0751 11.787 18.9414C11.2384 18.829 10.7936 18.8741 10.4527 19.0765C10.1119 19.2789 9.90667 19.5499 9.83712 19.8895L1.37277 18.1562L4.96775 0.600501L24.1693 4.53252L22.6045 12.1739ZM25.5589 19.3117C26.4844 14.7922 28.1655 11.4345 30.6022 9.23872C33.065 7.04826 36.295 6.36228 40.292 7.18078C44.263 7.99394 46.9476 9.90468 48.3458 12.913C49.7494 15.8952 49.9911 19.633 49.071 24.1265C48.1455 28.646 46.4487 32.0141 43.9805 34.2306C41.5176 36.4211 38.3008 37.1097 34.3298 36.2966C30.3328 35.4781 27.6324 33.5777 26.2288 30.5955C24.8567 27.5926 24.6334 23.8313 25.5589 19.3117ZM40.4891 22.3691C40.9171 20.2791 41.029 18.6688 40.825 17.5383C40.6264 16.3816 39.887 15.6722 38.6069 15.41C37.3007 15.1425 36.3289 15.5015 35.6916 16.4871C35.0596 17.4464 34.5296 18.9711 34.1016 21.0611C33.6683 23.1772 33.551 24.8136 33.7496 25.9703C33.9536 27.1008 34.7087 27.7999 36.015 28.0674C37.2951 28.3295 38.2511 27.9809 38.8831 27.0215C39.5204 26.036 40.0558 24.4852 40.4891 22.3691ZM52.3898 18.1099C52.8606 15.811 53.8721 14.1944 55.4245 13.2601C56.9821 12.2998 58.819 12.0362 60.9351 12.4696C63.025 12.8975 64.5844 13.8565 65.613 15.3465C66.6732 16.8157 66.9679 18.6998 66.4971 20.9988C66.0263 23.2977 65.0148 24.9143 63.4625 25.8486C61.9363 26.7882 60.1282 27.044 58.0382 26.616C55.9221 26.1827 54.334 25.2314 53.2739 23.7622C52.2137 22.293 51.9191 20.4089 52.3898 18.1099ZM82.7995 17.3552L62.4773 42.2239L54.1697 40.5227L74.4919 15.654L82.7995 17.3552ZM59.8215 17.5086C58.9333 17.3267 58.3501 17.915 58.0719 19.2735C57.7991 20.6059 58.1068 21.363 58.995 21.5449C59.4653 21.6412 59.8527 21.5436 60.1574 21.2521C60.4882 20.966 60.7204 20.4964 60.8542 19.8432C60.9933 19.164 60.967 18.6278 60.7753 18.2347C60.6097 17.8469 60.2918 17.6049 59.8215 17.5086ZM70.4721 36.879C70.9429 34.5801 71.9544 32.9635 73.5067 32.0292C75.0644 31.0689 76.8882 30.8027 78.9782 31.2306C81.0943 31.664 82.6666 32.6256 83.6953 34.1156C84.7293 35.5795 85.0109 37.4609 84.5402 39.7599C84.0694 42.0588 83.0682 43.6912 81.5367 44.6569C80.0105 45.5965 78.1894 45.8496 76.0733 45.4163C73.9833 44.9883 72.4083 44.0397 71.3481 42.5705C70.2933 41.0752 70.0013 39.178 70.4721 36.879ZM77.9038 36.2777C76.9895 36.0905 76.3932 36.6761 76.115 38.0346C75.8368 39.3931 76.1549 40.1659 77.0693 40.3532C77.5134 40.4441 77.8878 40.3438 78.1924 40.0524C78.5232 39.7662 78.7582 39.2836 78.8973 38.6043C79.031 37.9512 79.002 37.4281 78.8103 37.035C78.6501 36.6211 78.3479 36.3687 77.9038 36.2777Z" fill="#CC0E18"/>
</svg>
