<svg width="330" height="123" viewBox="0 0 330 123" fill="none" xmlns="http://www.w3.org/2000/svg">
<path d="M23.688 18.0501L20.2492 14.4204L20.2492 14.4204L23.688 18.0501ZM18.1946 44.104L13.5729 46.0117L13.5904 46.0542L13.6087 46.0963L18.1946 44.104ZM33.9096 51.2095L33.7749 46.2113L33.7624 46.2116L33.7499 46.212L33.9096 51.2095ZM41.3076 50.5412L46.2113 51.5176L47.5913 44.5866L40.5962 45.5921L41.3076 50.5412ZM39.4476 59.8829L40.3803 64.7951L43.6929 64.1661L44.3513 60.8592L39.4476 59.8829ZM32.1968 60.5804L32.1802 65.5804L32.1968 60.5804ZM11.7605 53.7584L8.27472 57.343L8.30392 57.3714L8.33358 57.3993L11.7605 53.7584ZM5.91172 42.8055L1.00384 43.7608L1.00588 43.7713L1.00796 43.7818L5.91172 42.8055ZM11.9033 14.6331L7.88034 11.664L7.88034 11.664L11.9033 14.6331ZM22.1191 6.72576L20.3425 2.05205L20.3283 2.05743L20.3142 2.0629L22.1191 6.72576ZM43.8601 8.53093L41.6638 13.0227L41.7132 13.0469L41.7631 13.0699L43.8601 8.53093ZM50.9092 12.6874L55.1034 15.4093L57.6673 11.4585L53.8767 8.66324L50.9092 12.6874ZM45.5035 21.0172L42.5176 25.0277L46.7949 28.2122L49.6978 23.7391L45.5035 21.0172ZM40.0288 17.4036L37.4873 21.7095L37.5037 21.7192L37.5202 21.7287L40.0288 17.4036ZM35.3992 10.3131C29.7139 9.18108 24.4393 10.4507 20.2492 14.4204L27.1267 21.6798C28.7174 20.1729 30.5994 19.5537 33.4465 20.1206L35.3992 10.3131ZM20.2492 14.4204C16.3525 18.1121 14.0174 23.3472 12.7937 29.4931L22.6012 31.4458C23.5841 26.5092 25.2427 23.4648 27.1267 21.6798L20.2492 14.4204ZM12.7937 29.4931C11.5792 35.5929 11.606 41.2468 13.5729 46.0117L22.8164 42.1963C21.8943 39.9624 21.5896 36.5266 22.6012 31.4458L12.7937 29.4931ZM13.6087 46.0963C15.9273 51.4332 20.6154 54.4254 26.3874 55.5746L28.3402 45.7671C24.8931 45.0808 23.4685 43.6951 22.7805 42.1116L13.6087 46.0963ZM26.3874 55.5746C28.9202 56.0789 31.4834 56.2896 34.0694 56.2069L33.7499 46.212C31.9234 46.2704 30.1226 46.122 28.3402 45.7671L26.3874 55.5746ZM34.0443 56.2077C36.526 56.1408 39.1873 55.8974 42.0189 55.4904L40.5962 45.5921C38.0745 45.9545 35.8038 46.1566 33.7749 46.2113L34.0443 56.2077ZM36.4038 49.5649L34.5438 58.9065L44.3513 60.8592L46.2113 51.5176L36.4038 49.5649ZM38.5149 54.9706C36.3124 55.3888 34.2139 55.5871 32.2134 55.5804L32.1802 65.5804C34.8669 65.5893 37.6022 65.3226 40.3803 64.7951L38.5149 54.9706ZM32.2134 55.5804C30.2523 55.5739 28.0092 55.3367 25.465 54.8302L23.5123 64.6377C26.5584 65.2442 29.4541 65.5713 32.1802 65.5804L32.2134 55.5804ZM25.465 54.8302C20.7228 53.886 17.422 52.2208 15.1874 50.1175L8.33358 57.3993C12.2816 61.1154 17.4663 63.4339 23.5123 64.6377L25.465 54.8302ZM15.2463 50.1738C12.9766 47.9667 11.4948 45.2411 10.8155 41.8292L1.00796 43.7818C2.06199 49.0759 4.47938 53.6523 8.27472 57.343L15.2463 50.1738ZM10.8196 41.8501C10.1116 38.2128 10.1661 33.9843 11.1411 29.0876L1.33363 27.1348C0.160604 33.0263 -0.00192346 38.594 1.00384 43.7608L10.8196 41.8501ZM11.1411 29.0876C12.0773 24.3855 13.7108 20.6041 15.9263 17.6022L7.88034 11.664C4.65016 16.0408 2.50635 21.2449 1.33363 27.1348L11.1411 29.0876ZM15.9263 17.6022C18.1129 14.6396 20.7634 12.612 23.924 11.3886L20.3142 2.0629C15.2995 4.004 11.1395 7.24803 7.88034 11.664L15.9263 17.6022ZM23.8957 11.3995C26.9789 10.2274 30.7134 9.94088 35.2918 10.8525L37.2446 1.04499C31.2309 -0.152355 25.5326 0.0791041 20.3425 2.05205L23.8957 11.3995ZM35.2918 10.8525C37.4538 11.2829 39.5753 12.0015 41.6638 13.0227L46.0565 4.03916C43.2203 2.65235 40.2806 1.64947 37.2446 1.04499L35.2918 10.8525ZM41.7631 13.0699C43.9854 14.0966 46.0425 15.3111 47.9417 16.7116L53.8767 8.66324C51.4193 6.8512 48.777 5.29468 45.9571 3.99192L41.7631 13.0699ZM46.715 9.96558L41.3093 18.2954L49.6978 23.7391L55.1034 15.4093L46.715 9.96558ZM48.4895 17.0067C46.5639 15.5731 44.5798 14.263 42.5374 13.0784L37.5202 21.7287C39.2255 22.7178 40.8912 23.8169 42.5176 25.0277L48.4895 17.0067ZM42.5703 13.0977C40.3031 11.7595 37.9092 10.8128 35.3992 10.3131L33.4465 20.1206C34.7615 20.3824 36.1049 20.8936 37.4873 21.7095L42.5703 13.0977ZM93.0217 72.6145L92.0453 77.5182L101.763 79.4531L97.5463 70.4866L93.0217 72.6145ZM80.37 70.0955L75.8138 72.1548L76.8726 74.4973L79.3937 74.9992L80.37 70.0955ZM66.6206 39.675L71.1769 37.6157L64.7595 23.4172L61.7169 38.6986L66.6206 39.675ZM61.319 66.3023L60.3426 71.2061L65.2464 72.1824L66.2227 67.2787L61.319 66.3023ZM50.212 64.0909L45.3083 63.1145L44.3319 68.0182L49.2356 68.9946L50.212 64.0909ZM60.6688 11.5717L61.6452 6.66799L56.7414 5.69163L55.7651 10.5954L60.6688 11.5717ZM71.7758 13.7832L76.6796 14.7596L77.6559 9.85581L72.7522 8.87945L71.7758 13.7832ZM66.7085 39.2336L61.8048 38.2573L58.8436 53.1296L70.0698 42.9352L66.7085 39.2336ZM90.6062 17.5324L91.5826 12.6287L89.1107 12.1365L87.2449 13.8309L90.6062 17.5324ZM102.449 19.8903L105.767 23.6307L113.296 16.9518L103.425 14.9866L102.449 19.8903ZM78.3008 41.3123L74.9827 37.572L72.184 40.0547L73.7761 43.4402L78.3008 41.3123ZM93.9981 67.7107L81.3464 65.1917L79.3937 74.9992L92.0453 77.5182L93.9981 67.7107ZM84.9263 68.0362L71.1769 37.6157L62.0644 41.7343L75.8138 72.1548L84.9263 68.0362ZM61.7169 38.6986L56.4152 65.326L66.2227 67.2787L71.5244 40.6513L61.7169 38.6986ZM62.2954 61.3986L51.1884 59.1871L49.2356 68.9946L60.3426 71.2061L62.2954 61.3986ZM55.1158 65.0672L65.5726 12.5481L55.7651 10.5954L45.3083 63.1145L55.1158 65.0672ZM59.6925 16.4755L70.7995 18.6869L72.7522 8.87945L61.6452 6.66799L59.6925 16.4755ZM66.8721 12.8068L61.8048 38.2573L71.6123 40.21L76.6796 14.7596L66.8721 12.8068ZM70.0698 42.9352L93.9675 21.234L87.2449 13.8309L63.3472 35.5321L70.0698 42.9352ZM89.6298 22.4362L101.472 24.7941L103.425 14.9866L91.5826 12.6287L89.6298 22.4362ZM99.1306 16.15L74.9827 37.572L81.6189 45.0526L105.767 23.6307L99.1306 16.15ZM73.7761 43.4402L88.4971 74.7423L97.5463 70.4866L82.8254 39.1844L73.7761 43.4402ZM110.089 21.4116L111.066 16.5079L106.162 15.5315L105.186 20.4353L110.089 21.4116ZM120.093 23.4034L124.997 24.3798L125.973 19.476L121.069 18.4997L120.093 23.4034ZM114.147 52.8848L109.277 51.7508L114.147 52.8848ZM113.106 57.3424L117.973 58.4872L117.975 58.4816L113.106 57.3424ZM112.212 61.0645L117.064 62.273L117.067 62.2625L112.212 61.0645ZM111.64 63.1683L106.896 61.5913L105.109 66.9661L110.664 68.0721L111.64 63.1683ZM111.861 63.2123L110.885 68.116L113.64 68.6646L115.542 66.5964L111.861 63.2123ZM144.072 28.1778L145.049 23.2741L142.293 22.7254L140.392 24.7937L144.072 28.1778ZM157.386 30.8286L162.29 31.805L163.266 26.9012L158.362 25.9249L157.386 30.8286ZM146.929 83.3477L145.953 88.2515L150.857 89.2278L151.833 84.3241L146.929 83.3477ZM136.999 81.3706L132.095 80.3942L131.119 85.298L136.023 86.2744L136.999 81.3706ZM142.96 51.8157L147.831 52.9447L147.832 52.9401L142.96 51.8157ZM144.03 47.2109L139.202 45.9105L139.18 45.9908L139.161 46.0717L144.03 47.2109ZM145.012 43.4299L140.211 42.0324L140.183 42.1316L140.158 42.2319L145.012 43.4299ZM145.672 41.2672L150.389 42.9273L152.303 37.4892L146.649 36.3634L145.672 41.2672ZM145.378 41.2086L146.354 36.3049L143.59 35.7545L141.688 37.8345L145.378 41.2086ZM113.02 76.5962L112.043 81.5L114.808 82.0503L116.71 79.9703L113.02 76.5962ZM99.6326 73.9307L94.7288 72.9544L93.7525 77.8581L98.6562 78.8345L99.6326 73.9307ZM109.113 26.3154L119.117 28.3071L121.069 18.4997L111.066 16.5079L109.113 26.3154ZM115.189 22.427L110.137 47.8039L119.944 49.7566L124.997 24.3798L115.189 22.427ZM110.137 47.8039C109.905 48.9664 109.619 50.2809 109.277 51.7508L119.016 54.0187C119.378 52.4678 119.687 51.046 119.944 49.7566L110.137 47.8039ZM109.277 51.7508C108.926 53.2595 108.579 54.7437 108.238 56.2032L117.975 58.4816C118.317 57.0184 118.664 55.5308 119.016 54.0187L109.277 51.7508ZM108.239 56.1977C107.91 57.5974 107.616 58.8197 107.358 59.8665L117.067 62.2625C117.336 61.1712 117.638 59.9121 117.973 58.4872L108.239 56.1977ZM107.36 59.856C107.104 60.8873 106.954 61.4144 106.896 61.5913L116.385 64.7454C116.581 64.1572 116.813 63.2817 117.064 62.273L107.36 59.856ZM110.664 68.0721L110.885 68.116L112.837 58.3085L112.617 58.2646L110.664 68.0721ZM115.542 66.5964L147.753 31.5619L140.392 24.7937L108.18 59.8281L115.542 66.5964ZM143.096 33.0815L156.41 35.7324L158.362 25.9249L145.049 23.2741L143.096 33.0815ZM152.482 29.8523L142.025 82.3714L151.833 84.3241L162.29 31.805L152.482 29.8523ZM147.906 78.444L137.975 76.4669L136.023 86.2744L145.953 88.2515L147.906 78.444ZM141.903 82.347L146.926 57.1172L137.119 55.1645L132.095 80.3942L141.903 82.347ZM146.926 57.1172C147.178 55.8526 147.479 54.4624 147.831 52.9447L138.089 50.6866C137.718 52.2878 137.394 53.7811 137.119 55.1645L146.926 57.1172ZM147.832 52.9401C148.202 51.3361 148.558 49.8061 148.898 48.3501L139.161 46.0717C138.818 47.5385 138.46 49.0783 138.088 50.6912L147.832 52.9401ZM148.858 48.5113C149.255 47.037 149.592 45.741 149.866 44.628L140.158 42.2319C139.905 43.257 139.587 44.4816 139.202 45.9105L148.858 48.5113ZM149.813 44.8274C150.144 43.6887 150.325 43.1063 150.389 42.9273L140.956 39.6071C140.784 40.095 140.525 40.9545 140.211 42.0324L149.813 44.8274ZM146.649 36.3634L146.354 36.3049L144.402 46.1123L144.696 46.1709L146.649 36.3634ZM141.688 37.8345L109.33 73.2221L116.71 79.9703L149.068 44.5827L141.688 37.8345ZM113.996 71.6925L100.609 69.027L98.6562 78.8345L112.043 81.5L113.996 71.6925ZM104.536 74.9071L114.993 22.388L105.186 20.4353L94.7288 72.9544L104.536 74.9071ZM211.762 41.6551L216.666 42.6315L217.642 37.7277L212.738 36.7514L211.762 41.6551ZM203.15 84.9062L198.247 83.9298L197.27 88.8335L202.174 89.8099L203.15 84.9062ZM210.138 86.2975L215.042 87.2738L216.018 82.3701L211.115 81.3937L210.138 86.2975ZM205.247 110.865L204.27 115.769L209.174 116.745L210.15 111.842L205.247 110.865ZM194.507 108.727L189.604 107.751L188.627 112.654L193.531 113.631L194.507 108.727ZM197.554 93.4273L202.457 94.4037L203.434 89.4999L198.53 88.5236L197.554 93.4273ZM164.674 86.8808L165.65 81.9771L160.747 81.0007L159.77 85.9045L164.674 86.8808ZM161.628 102.181L160.651 107.084L165.555 108.061L166.532 103.157L161.628 102.181ZM150.889 100.042L145.985 99.0659L145.008 103.97L149.912 104.946L150.889 100.042ZM155.78 75.4745L156.757 70.5708L151.853 69.5944L150.876 74.4982L155.78 75.4745ZM159.826 76.28L158.849 81.1838L161.862 81.7836L163.759 79.3673L159.826 76.28ZM167.392 65.5508L171.609 68.2358L171.615 68.2275L171.62 68.2192L167.392 65.5508ZM174.529 52.3657L170.023 50.1989L170.013 50.219L170.003 50.2393L174.529 52.3657ZM181.162 35.5626L182.139 30.6589L177.794 29.7937L176.412 34.0033L181.162 35.5626ZM188.144 46.5882L189.12 41.6844L184.815 40.8271L183.408 44.9858L188.144 46.5882ZM183.814 57.1969L179.287 55.0735L179.278 55.0936L179.269 55.1138L183.814 57.1969ZM178.072 68.3657L182.407 70.8589L182.411 70.8508L182.416 70.8427L178.072 68.3657ZM171.521 78.6086L167.452 75.7036L162.956 82.0014L170.545 83.5124L171.521 78.6086ZM192.043 82.6947L191.067 87.5985L195.971 88.5748L196.947 83.6711L192.043 82.6947ZM198.81 48.7117L203.713 49.6881L204.69 44.7844L199.786 43.808L198.81 48.7117ZM206.858 40.6788L198.247 83.9298L208.054 85.8825L216.666 42.6315L206.858 40.6788ZM202.174 89.8099L209.162 91.2012L211.115 81.3937L204.127 80.0024L202.174 89.8099ZM205.234 85.3211L200.343 109.889L210.15 111.842L215.042 87.2738L205.234 85.3211ZM206.223 105.961L195.484 103.823L193.531 113.631L204.27 115.769L206.223 105.961ZM199.411 109.703L202.457 94.4037L192.65 92.451L189.604 107.751L199.411 109.703ZM198.53 88.5236L165.65 81.9771L163.698 91.7846L196.577 98.3311L198.53 88.5236ZM159.77 85.9045L156.724 101.204L166.532 103.157L169.578 87.8572L159.77 85.9045ZM162.604 97.2768L151.865 95.1385L149.912 104.946L160.651 107.084L162.604 97.2768ZM155.792 101.019L160.684 76.4509L150.876 74.4982L145.985 99.0659L155.792 101.019ZM154.804 80.3783L158.849 81.1838L160.802 71.3763L156.757 70.5708L154.804 80.3783ZM163.759 79.3673C166.464 75.9209 169.08 72.209 171.609 68.2358L163.174 62.8659C160.806 66.5847 158.379 70.0256 155.893 73.1927L163.759 79.3673ZM171.62 68.2192C174.205 64.1229 176.681 59.5426 179.054 54.4921L170.003 50.2393C167.776 54.979 165.494 59.1888 163.163 62.8825L171.62 68.2192ZM179.035 54.5325C181.497 49.4121 183.786 43.6018 185.913 37.122L176.412 34.0033C174.392 40.1569 172.259 45.5486 170.023 50.1989L179.035 54.5325ZM180.186 40.4664L210.785 46.5589L212.738 36.7514L182.139 30.6589L180.186 40.4664ZM183.408 44.9858C182.363 48.0733 180.994 51.4342 179.287 55.0735L188.341 59.3203C190.177 55.4061 191.695 51.6945 192.88 48.1906L183.408 44.9858ZM179.269 55.1138C177.62 58.7121 175.774 62.3037 173.729 65.8888L182.416 70.8427C184.601 67.0109 186.583 63.1567 188.359 59.2799L179.269 55.1138ZM173.738 65.8725C171.708 69.4021 169.612 72.6778 167.452 75.7036L175.591 81.5137C177.955 78.2011 180.227 74.6482 182.407 70.8589L173.738 65.8725ZM170.545 83.5124L191.067 87.5985L193.02 77.791L172.498 73.7049L170.545 83.5124ZM196.947 83.6711L203.713 49.6881L193.906 47.7354L187.14 81.7183L196.947 83.6711ZM199.786 43.808L189.12 41.6844L187.168 51.4919L197.833 53.6155L199.786 43.808ZM259.17 105.695L258.193 110.599L267.911 112.534L263.694 103.568L259.17 105.695ZM246.518 103.176L241.962 105.236L243.02 107.578L245.542 108.08L246.518 103.176ZM232.769 72.7559L237.325 70.6965L230.907 56.4981L227.865 71.7795L232.769 72.7559ZM227.467 99.3832L226.491 104.287L231.394 105.263L232.371 100.36L227.467 99.3832ZM216.36 97.1717L211.456 96.1954L210.48 101.099L215.384 102.075L216.36 97.1717ZM226.817 44.6526L227.793 39.7489L222.889 38.7725L221.913 43.6763L226.817 44.6526ZM237.924 46.8641L242.827 47.8404L243.804 42.9367L238.9 41.9603L237.924 46.8641ZM232.856 72.3145L227.953 71.3382L224.992 86.2105L236.218 76.0161L232.856 72.3145ZM256.754 50.6133L257.73 45.7096L255.259 45.2174L253.393 46.9118L256.754 50.6133ZM268.597 52.9712L271.915 56.7116L279.443 50.0327L269.573 48.0675L268.597 52.9712ZM244.449 74.3932L241.131 70.6528L238.332 73.1356L239.924 76.521L244.449 74.3932ZM260.146 100.792L247.494 98.2726L245.542 108.08L258.193 110.599L260.146 100.792ZM251.074 101.117L237.325 70.6965L228.212 74.8152L241.962 105.236L251.074 101.117ZM227.865 71.7795L222.563 98.4068L232.371 100.36L237.672 73.7322L227.865 71.7795ZM228.443 94.4795L217.336 92.268L215.384 102.075L226.491 104.287L228.443 94.4795ZM221.264 98.1481L231.72 45.629L221.913 43.6763L211.456 96.1954L221.264 98.1481ZM225.84 49.5564L236.947 51.7678L238.9 41.9603L227.793 39.7489L225.84 49.5564ZM233.02 45.8877L227.953 71.3382L237.76 73.2909L242.827 47.8404L233.02 45.8877ZM236.218 76.0161L260.115 54.3149L253.393 46.9118L229.495 68.613L236.218 76.0161ZM255.778 55.517L267.62 57.875L269.573 48.0675L257.73 45.7096L255.778 55.517ZM265.279 49.2309L241.131 70.6528L247.767 78.1335L271.915 56.7116L265.279 49.2309ZM239.924 76.521L254.645 107.823L263.694 103.568L248.973 72.2653L239.924 76.521ZM276.237 54.4925L277.214 49.5888L272.31 48.6124L271.334 53.5161L276.237 54.4925ZM286.241 56.4843L291.145 57.4606L292.121 52.5569L287.217 51.5805L286.241 56.4843ZM280.295 85.9657L275.425 84.8317L280.295 85.9657ZM279.254 90.4233L284.121 91.5681L284.123 91.5625L279.254 90.4233ZM278.36 94.1454L283.212 95.3539L283.214 95.3434L278.36 94.1454ZM277.788 96.2492L273.043 94.6722L271.257 100.047L276.812 101.153L277.788 96.2492ZM278.009 96.2932L277.033 101.197L279.788 101.746L281.69 99.6773L278.009 96.2932ZM310.22 61.2587L311.197 56.3549L308.441 55.8063L306.54 57.8746L310.22 61.2587ZM323.534 63.9095L328.438 64.8859L329.414 59.9821L324.51 59.0058L323.534 63.9095ZM313.077 116.429L312.101 121.332L317.004 122.309L317.981 117.405L313.077 116.429ZM303.147 114.451L298.243 113.475L297.267 118.379L302.171 119.355L303.147 114.451ZM309.108 84.8965L313.979 86.0256L313.98 86.021L309.108 84.8965ZM310.178 80.2918L305.35 78.9914L305.328 79.0717L305.309 79.1526L310.178 80.2918ZM311.16 76.5108L306.359 75.1133L306.33 75.2125L306.306 75.3128L311.16 76.5108ZM311.82 74.3481L316.536 76.0081L318.451 70.5701L312.796 69.4443L311.82 74.3481ZM311.526 74.2895L312.502 69.3857L309.738 68.8353L307.836 70.9154L311.526 74.2895ZM279.168 109.677L278.191 114.581L280.956 115.131L282.858 113.051L279.168 109.677ZM265.78 107.012L260.877 106.035L259.9 110.939L264.804 111.915L265.78 107.012ZM275.261 59.3963L285.265 61.388L287.217 51.5805L277.214 49.5888L275.261 59.3963ZM281.337 55.5079L276.285 80.8848L286.092 82.8375L291.145 57.4606L281.337 55.5079ZM276.285 80.8848C276.053 82.0473 275.767 83.3618 275.425 84.8317L285.164 87.0996C285.525 85.5487 285.835 84.1269 286.092 82.8375L276.285 80.8848ZM275.425 84.8317C275.074 86.3404 274.727 87.8246 274.386 89.2841L284.123 91.5625C284.465 90.0993 284.812 88.6117 285.164 87.0996L275.425 84.8317ZM274.387 89.2785C274.058 90.6783 273.764 91.9006 273.506 92.9474L283.214 95.3434C283.484 94.2521 283.786 92.993 284.121 91.5681L274.387 89.2785ZM273.508 92.9369C273.251 93.9682 273.102 94.4953 273.043 94.6722L282.533 97.8263C282.728 97.2381 282.961 96.3626 283.212 95.3539L273.508 92.9369ZM276.812 101.153L277.033 101.197L278.985 91.3894L278.765 91.3455L276.812 101.153ZM281.69 99.6773L313.901 64.6428L306.54 57.8746L274.328 92.909L281.69 99.6773ZM309.244 66.1624L322.558 68.8133L324.51 59.0058L311.197 56.3549L309.244 66.1624ZM318.63 62.9331L308.173 115.452L317.981 117.405L328.438 64.8859L318.63 62.9331ZM314.053 111.525L304.123 109.548L302.171 119.355L312.101 121.332L314.053 111.525ZM308.051 115.428L313.074 90.1981L303.267 88.2454L298.243 113.475L308.051 115.428ZM313.074 90.1981C313.326 88.9334 313.627 87.5433 313.979 86.0256L304.237 83.7675C303.866 85.3687 303.542 86.862 303.267 88.2454L313.074 90.1981ZM313.98 86.021C314.35 84.417 314.706 82.887 315.046 81.431L305.309 79.1526C304.966 80.6193 304.608 82.1592 304.236 83.7721L313.98 86.021ZM315.006 81.5922C315.403 80.1179 315.74 78.8219 316.014 77.7088L306.306 75.3128C306.053 76.3379 305.735 77.5625 305.35 78.9914L315.006 81.5922ZM315.961 77.9083C316.292 76.7695 316.473 76.1872 316.536 76.0081L307.104 72.688C306.932 73.1759 306.673 74.0354 306.359 75.1133L315.961 77.9083ZM312.796 69.4443L312.502 69.3857L310.549 79.1932L310.844 79.2518L312.796 69.4443ZM307.836 70.9154L275.478 106.303L282.858 113.051L315.216 77.6635L307.836 70.9154ZM280.144 104.773L266.757 102.108L264.804 111.915L278.191 114.581L280.144 104.773ZM270.684 107.988L281.141 55.4689L271.334 53.5161L260.877 106.035L270.684 107.988Z" fill="white"/>
</svg>
