<svg width="219" height="88" viewBox="0 0 219 88" fill="none" xmlns="http://www.w3.org/2000/svg">
<path d="M31.683 80.8427L26.5626 71.4856L11.2856 74.6439L10.2952 85.2643L0.717775 87.2443L6.81511 42.0541L17.6853 39.8068L41.2605 78.8627L31.683 80.8427ZM17.8328 55.3386C17.4992 54.7132 17.0705 53.9236 16.5466 52.9699C16.0227 52.0163 15.4947 51.043 14.9627 50.0501C14.4306 49.0573 13.9857 48.1894 13.6279 47.4464C13.594 48.2704 13.5223 49.3063 13.4127 50.5544C13.3341 51.7551 13.2475 52.9167 13.1528 54.0392C13.0891 55.1143 13.0235 55.8835 12.9559 56.3468L11.9757 66.7201L22.9046 64.4607L17.8328 55.3386ZM80.7708 70.6946L70.6645 72.7839L51.049 54.6598L55.4463 75.93L46.5739 77.7642L37.9008 35.8114L46.7732 33.9771L50.9761 54.3072L61.8151 30.8675L71.275 28.9118L60.1646 52.2239L80.7708 70.6946ZM124.02 54.4011L128.004 73.6736L119.426 75.4471L116.899 63.2255L86.0516 69.6028L77.3785 27.65L86.2509 25.8157L93.3934 60.3652L108.847 57.1704L101.704 22.621L110.576 20.7868L117.792 55.6887L124.02 54.4011ZM123.283 18.1599L131.274 16.5079L135.465 36.7793C135.667 37.7586 135.874 38.8594 136.086 40.0818C136.298 41.3043 136.506 42.5071 136.71 43.6903C136.905 44.8344 137.073 45.8414 137.212 46.7113C137.342 47.542 137.421 48.1181 137.446 48.4395L137.623 48.4031L150.429 12.5479L161.064 10.3493L169.737 52.3022L161.805 53.942L157.638 33.7882C157.42 32.7306 157.2 31.571 156.98 30.3094C156.752 29.0086 156.536 27.7666 156.333 26.5833C156.168 25.392 156.016 24.3614 155.877 23.4915C155.769 22.5744 155.707 21.9746 155.689 21.6923L155.454 21.7409L142.65 57.902L131.956 60.1128L123.283 18.1599ZM171.654 8.15984L179.645 6.50782L183.836 26.7792C184.039 27.7585 184.246 28.8593 184.458 30.0817C184.67 31.3042 184.877 32.507 185.081 33.6902C185.277 34.8343 185.444 35.8413 185.583 36.7112C185.714 37.5419 185.792 38.118 185.818 38.4394L185.994 38.403L198.8 2.54783L209.436 0.349183L218.109 42.302L210.176 43.9419L206.01 23.7881C205.791 22.7305 205.572 21.5708 205.352 20.3093C205.124 19.0085 204.908 17.7665 204.704 16.5832C204.54 15.3919 204.388 14.3613 204.249 13.4914C204.141 12.5743 204.078 11.9745 204.061 11.6922L203.826 11.7408L191.021 47.9019L180.328 50.1127L171.654 8.15984Z" fill="#CC0E18"/>
</svg>
