<svg width="20" height="20" viewBox="0 0 20 20" fill="none" xmlns="http://www.w3.org/2000/svg">
<path d="M15.7896 15.7895C16.348 15.7895 16.8835 16.0113 17.2783 16.4061C17.6731 16.8009 17.8949 17.3364 17.8949 17.8947C17.8949 18.4531 17.6731 18.9886 17.2783 19.3834C16.8835 19.7782 16.348 20 15.7896 20C15.2313 20 14.6958 19.7782 14.301 19.3834C13.9062 18.9886 13.6843 18.4531 13.6843 17.8947C13.6843 17.3364 13.9062 16.8009 14.301 16.4061C14.6958 16.0113 15.2313 15.7895 15.7896 15.7895ZM15.7896 16.8421C15.5105 16.8421 15.2427 16.953 15.0453 17.1504C14.8479 17.3478 14.737 17.6156 14.737 17.8947C14.737 18.1739 14.8479 18.4417 15.0453 18.6391C15.2427 18.8365 15.5105 18.9474 15.7896 18.9474C16.0688 18.9474 16.3366 18.8365 16.534 18.6391C16.7314 18.4417 16.8423 18.1739 16.8423 17.8947C16.8423 17.6156 16.7314 17.3478 16.534 17.1504C16.3366 16.953 16.0688 16.8421 15.7896 16.8421ZM6.31585 15.7895C6.87421 15.7895 7.40969 16.0113 7.80451 16.4061C8.19933 16.8009 8.42114 17.3364 8.42114 17.8947C8.42114 18.4531 8.19933 18.9886 7.80451 19.3834C7.40969 19.7782 6.87421 20 6.31585 20C5.7575 20 5.22201 19.7782 4.82719 19.3834C4.43237 18.9886 4.21057 18.4531 4.21057 17.8947C4.21057 17.3364 4.43237 16.8009 4.82719 16.4061C5.22201 16.0113 5.7575 15.7895 6.31585 15.7895ZM6.31585 16.8421C6.03667 16.8421 5.76893 16.953 5.57152 17.1504C5.37411 17.3478 5.26321 17.6156 5.26321 17.8947C5.26321 18.1739 5.37411 18.4417 5.57152 18.6391C5.76893 18.8365 6.03667 18.9474 6.31585 18.9474C6.59503 18.9474 6.86277 18.8365 7.06018 18.6391C7.25759 18.4417 7.36849 18.1739 7.36849 17.8947C7.36849 17.6156 7.25759 17.3478 7.06018 17.1504C6.86277 16.953 6.59503 16.8421 6.31585 16.8421ZM17.8949 3.15789H3.4453L6.12638 9.47368H14.737C14.9007 9.47393 15.0621 9.43578 15.2084 9.36229C15.3546 9.28879 15.4816 9.18201 15.5791 9.05053L18.737 4.84H18.7381C18.8548 4.68353 18.9258 4.49768 18.9429 4.30322C18.9601 4.10876 18.9229 3.91335 18.8354 3.73883C18.748 3.56431 18.6137 3.41756 18.4476 3.31497C18.2815 3.21237 18.0901 3.15799 17.8949 3.15789ZM14.737 10.5263H6.1748L5.36847 12.1684L5.26321 12.6316C5.26321 12.9108 5.37411 13.1785 5.57152 13.3759C5.76893 13.5733 6.03667 13.6842 6.31585 13.6842H17.8949V14.7368H6.31585C5.94929 14.737 5.58903 14.6415 5.27072 14.4597C4.95241 14.2779 4.68709 14.0161 4.501 13.7003C4.31491 13.3845 4.21451 13.0256 4.20972 12.659C4.20494 12.2925 4.29594 11.9311 4.47373 11.6105L5.23163 10.0589L1.40843 1.05263H0V0H2.10528L2.99898 2.10526H17.8949C18.2927 2.1053 18.6823 2.21802 19.0186 2.43037C19.355 2.64272 19.6243 2.94601 19.7954 3.30511C19.9664 3.66421 20.0323 4.06442 19.9852 4.45939C19.9382 4.85437 19.7803 5.22794 19.5297 5.53684L16.4623 9.62737C16.2683 9.90506 16.0102 10.1318 15.7098 10.2883C15.4094 10.4448 15.0757 10.5265 14.737 10.5263Z" fill="black"/>
</svg>
