<svg width="96" height="57" viewBox="0 0 96 57" fill="none" xmlns="http://www.w3.org/2000/svg">
<path d="M2.57963 6.94992C19.1701 0.190848 75.639 -1.46819 91.6764 1.23544C98.8042 2.40291 95.9777 51.9899 91.3692 53.1574C72.8125 57.8887 9.83027 58.4417 4.60736 51.1296C-0.123991 44.5549 -1.84448 8.7933 2.57963 6.94992Z" fill="#FC3843"/>
<path d="M93.7669 3.50849C93.2138 2.21812 92.4765 1.35789 91.6777 1.235C77.2379 -1.1614 30.0473 -0.116822 8.66406 5.10609C11.7978 7.56394 16.4063 9.22298 19.2328 10.0832C25.869 12.1109 32.9353 12.2953 39.8787 12.4796C58.3125 12.9712 78.0981 12.9712 93.7669 3.50849Z" fill="#FC555E"/>
<path d="M91.3088 53.1574C93.6438 52.5429 95.4872 40.0079 95.8559 27.35C94.8727 27.9645 93.8896 28.5175 92.9064 29.0705C80.6172 35.9525 66.1774 37.4886 52.1677 38.8404C47.6207 39.2705 43.0122 39.7621 38.4652 39.332C34.3484 38.9633 30.2929 37.7958 26.3604 36.5055C17.082 33.3717 8.23377 29.0705 0 23.7861C0.184338 34.6621 1.90483 47.4429 4.48556 51.1296C9.76993 58.5032 72.8136 57.8887 91.3088 53.1574Z" fill="#CC0E18"/>
<path d="M71.5233 52.2358C70.4173 52.2358 69.3727 52.2972 68.2667 52.3587C67.1606 52.4201 66.1161 52.4816 65.01 52.543L61.7534 52.7274L58.4967 52.8503C54.1955 53.0346 49.8943 53.1575 45.5316 53.1575C43.381 53.1575 41.2304 53.1575 39.0798 53.0346C37.9738 52.9731 36.9292 52.9117 35.8231 52.8503C34.7171 52.7888 33.6725 52.6659 32.5665 52.6045C28.2653 52.2358 23.964 51.8057 19.6014 51.6828C19.1098 51.6828 18.6797 51.2527 18.6797 50.6996C18.6797 50.2081 19.1098 49.778 19.6628 49.778C19.7243 49.778 19.8472 49.778 19.9086 49.8394C21.9978 50.3924 24.0869 50.7611 26.2375 50.9454C27.2821 51.0683 28.3882 51.1298 29.4327 51.1912C30.4773 51.2527 31.5834 51.2527 32.6279 51.3141L45.5316 51.437C49.8328 51.437 54.1341 51.437 58.4353 51.3141C60.5859 51.2527 62.7365 51.1298 64.8871 51.0069C67.0377 50.884 69.1884 50.6996 71.2775 50.3924C71.7691 50.331 72.2607 50.6382 72.3221 51.1912C72.3835 51.6828 72.0763 52.1744 71.5233 52.2358C71.5848 52.2358 71.6462 52.2358 71.5233 52.2358Z" fill="white"/>
<path d="M72.7515 2.83313L78.1587 3.14036C79.9406 3.26325 81.784 3.38613 83.566 3.57047L84.9178 3.75482L85.5937 3.8777C85.8395 3.93915 86.0238 3.93916 86.3925 4.06205C87.0684 4.30784 87.56 4.7994 87.8672 5.22952C88.1744 5.65965 88.4202 6.1512 88.666 6.58132C89.4648 8.36326 89.8335 10.2067 90.2636 11.9886C90.4479 12.6645 90.0178 13.3404 89.3419 13.5247C88.666 13.7091 87.9901 13.279 87.8057 12.6031C87.8057 12.5416 87.8057 12.4802 87.7443 12.3573C87.6828 10.6368 87.4371 8.85484 86.8841 7.31869C86.7612 6.95001 86.5768 6.58132 86.3925 6.27409C86.2081 5.96686 85.9623 5.78253 85.778 5.72108C85.778 5.72108 85.4708 5.65965 85.2865 5.5982L84.6105 5.4753L83.3202 5.29097C81.5382 5.10663 79.7563 4.92229 77.9744 4.86084C76.1924 4.7994 74.4105 4.73794 72.5671 4.73794C72.0141 4.73794 71.584 4.30782 71.584 3.81625C71.584 3.26324 72.0141 2.83313 72.5057 2.83313C72.69 2.83313 72.7515 2.83313 72.7515 2.83313Z" fill="white"/>
<path d="M21.9348 34.8924H28.7268L28.8665 37.8892H22.0745L21.9348 34.8924ZM36.5366 32.6628C38.9046 32.6628 40.6706 33.1343 41.8346 34.0773C43.0146 35.0203 43.6414 36.2829 43.7152 37.8652C43.7629 38.8881 43.5505 39.8231 43.078 40.6701C42.6048 41.5012 41.8521 42.1725 40.8199 42.684C39.803 43.1794 38.5266 43.4272 36.9906 43.4272C35.8066 43.4272 34.6315 43.2753 33.4653 42.9716C32.3144 42.652 31.3256 42.2045 30.4987 41.6291L31.8961 38.6563C32.5585 39.1358 33.312 39.5114 34.1567 39.7831C35.0006 40.0388 35.8625 40.1667 36.7425 40.1667C37.7185 40.1667 38.4776 39.9749 39.0197 39.5913C39.5618 39.2077 39.8169 38.6723 39.7848 37.9851C39.7513 37.2658 39.4299 36.7224 38.8208 36.3548C38.2277 35.9872 37.2111 35.8034 35.7711 35.8034H31.4751L31.8986 26.3577H42.1466L42.2919 29.4743H35.2839L35.1686 32.6628H36.5366ZM51.2361 26.3577L52.0186 43.1395H48.1306L47.4934 29.4743H44.1334L43.9881 26.3577H51.2361ZM58.4651 35.4199C57.2331 35.4199 56.2057 35.0043 55.3829 34.1732C54.5754 33.3261 54.1389 32.1994 54.0733 30.7929C54.0077 29.3864 54.3395 28.2676 55.0688 27.4365C55.8133 26.5894 56.8015 26.1659 58.0335 26.1659C59.2655 26.1659 60.2853 26.5894 61.0928 27.4365C61.8996 28.2676 62.3357 29.3864 62.4013 30.7929C62.4669 32.1994 62.1354 33.3261 61.4069 34.1732C60.6777 35.0043 59.6971 35.4199 58.4651 35.4199ZM68.0505 26.3577H70.9065L60.217 43.1395H57.361L68.0505 26.3577ZM58.3734 33.454C58.9174 33.454 59.331 33.2302 59.6141 32.7827C59.9132 32.3352 60.0423 31.6719 60.0013 30.7929C59.9603 29.9138 59.7694 29.2506 59.4285 28.803C59.1036 28.3555 58.6692 28.1318 58.1252 28.1318C57.5972 28.1318 57.184 28.3635 56.8856 28.827C56.5865 29.2745 56.4571 29.9298 56.4973 30.7929C56.5376 31.6559 56.7285 32.3192 57.0701 32.7827C57.411 33.2302 57.8454 33.454 58.3734 33.454ZM70.234 43.3313C69.434 43.3313 68.7054 43.1475 68.0483 42.7799C67.4064 42.3963 66.893 41.8529 66.5083 41.1496C66.1235 40.4464 65.9095 39.6313 65.8662 38.7043C65.823 37.7773 65.961 36.9622 66.2802 36.2589C66.5994 35.5557 67.0624 35.0203 67.6693 34.6527C68.2914 34.2691 69.0025 34.0773 69.8025 34.0773C71.0345 34.0773 72.0542 34.5008 72.8617 35.3479C73.6845 36.179 74.1286 37.2978 74.1942 38.7043C74.2598 40.1108 73.9204 41.2375 73.1759 42.0846C72.4466 42.9157 71.466 43.3313 70.234 43.3313ZM70.1423 41.3654C70.6863 41.3654 71.0999 41.1416 71.383 40.6941C71.6814 40.2306 71.8105 39.5673 71.7702 38.7043C71.73 37.8412 71.5394 37.1859 71.1986 36.7384C70.8729 36.2749 70.4381 36.0432 69.8941 36.0432C69.3661 36.0432 68.9526 36.2669 68.6534 36.7144C68.3543 37.162 68.2252 37.8252 68.2662 38.7043C68.3072 39.5833 68.4981 40.2466 68.839 40.6941C69.1799 41.1416 69.6143 41.3654 70.1423 41.3654Z" fill="white"/>
<path d="M25.5817 18.9708C24.7257 18.9708 23.9411 18.787 23.228 18.4194C22.5224 18.0438 21.9544 17.5284 21.5239 16.8731C21.1009 16.2098 20.8701 15.4626 20.8313 14.6315C20.7926 13.8004 20.9539 13.0572 21.3154 12.4019C21.6844 11.7386 22.2044 11.2232 22.8753 10.8556C23.5537 10.48 24.325 10.2922 25.189 10.2922C25.917 10.2922 26.5789 10.4201 27.1749 10.6758C27.7788 10.9315 28.2919 11.2991 28.7143 11.7786L27.52 12.9293C26.9214 12.2741 26.2021 11.9464 25.3621 11.9464C24.8421 11.9464 24.3835 12.0623 23.9863 12.294C23.5888 12.5178 23.2835 12.8335 23.0705 13.241C22.8655 13.6486 22.7751 14.1121 22.7993 14.6315C22.8236 15.1509 22.9572 15.6144 23.2002 16.022C23.4512 16.4295 23.7861 16.7492 24.2049 16.9809C24.6233 17.2047 25.0925 17.3166 25.6125 17.3166C26.4525 17.3166 27.1411 16.9849 27.6781 16.3217L28.9798 17.4724C28.6025 17.9599 28.1239 18.3315 27.5438 18.5872C26.9637 18.8429 26.3097 18.9708 25.5817 18.9708ZM33.4044 15.4466H32.0604L32.218 18.8269H30.286L29.8947 10.4361H31.8267L31.9849 13.8284H33.3769L35.4267 10.4361H37.4787L34.9197 14.4877L37.954 18.8269H35.746L33.4044 15.4466ZM38.4734 10.4361H40.4054L40.6603 15.9021L44.4134 10.4361H46.2374L46.6287 18.8269H44.7087L44.4544 13.3729L40.7007 18.8269H38.8647L38.4734 10.4361ZM57.2518 17.2447L57.4066 20.5651H55.6066L55.5256 18.8269H49.5976L49.6786 20.5651H47.8786L47.7358 17.2447H48.0718C48.575 17.2287 48.9139 16.8611 49.0884 16.1419C49.2628 15.4226 49.3429 14.3958 49.3287 13.0612L49.3023 10.4361H55.7583L56.0758 17.2447H57.2518ZM51.0531 13.241C51.0597 14.2399 51.0148 15.079 50.9185 15.7583C50.8218 16.4295 50.6489 16.925 50.3998 17.2447H54.1558L53.9121 12.0183H51.0321L51.0531 13.241ZM61.7286 15.4466H60.3846L60.5422 18.8269H58.6102L58.2189 10.4361H60.1509L60.3091 13.8284H61.7011L63.7509 10.4361H65.8029L63.2439 14.4877L66.2782 18.8269H64.0702L61.7286 15.4466ZM72.629 17.0289H68.729L68.0688 18.8269H66.0768L69.4296 10.4361H71.3496L75.4968 18.8269H73.4568L72.629 17.0289ZM71.9482 15.5545L70.4664 12.342L69.2842 15.5545H71.9482Z" fill="white"/>
</svg>
