<svg width="92" height="84" viewBox="0 0 92 84" fill="none" xmlns="http://www.w3.org/2000/svg">
<path d="M42.9936 15.1519C43.4936 16.1519 43.8936 17.5519 44.5936 20.5519C45.8936 25.6519 45.5936 26.3519 45.0936 26.7519C44.5936 27.0519 42.6936 25.5519 40.9936 22.6519C40.0936 21.2519 40.1 21 39.5 19C39.2 18.1 38.3936 16.5519 38.1936 15.9519C37.6936 14.1519 36.5936 10.1519 37.5936 9.75192C38.3936 9.25192 41.3936 12.0519 42.9936 15.1519Z" fill="#72AE0F"/>
<path d="M39.4933 18.9519C42.5003 26 41.2933 28.0519 41.6933 28.0519C42.9933 28.0519 43.9933 20.0519 44.0933 18.7519C44.1933 17.8519 43.9933 17.0519 43.9933 17.0519C43.8933 16.5519 43.7933 16.1519 43.5933 15.7519C42.6933 13.8519 40.7933 9.45191 38.6933 9.75191C37.7933 9.85191 37.0934 10.8519 36.8934 11.7519C36.6934 12.8519 36.5 13.8 37.5 14.5" stroke="#1E1E1E" stroke-width="3" stroke-miterlimit="10" stroke-linecap="round"/>
<path d="M47.8925 7.65199C46.3925 9.95199 44.6925 12.452 43.4925 16.652C41.0925 24.652 42.0925 32.752 43.0925 32.852C43.3925 32.852 43.5925 32.052 44.5925 28.752C47.2925 19.752 46.1075 22.964 48.5 17C51.1075 10.5 57.0925 6.45197 56.1925 3.85197C55.8925 2.95197 54.9925 2.15198 54.0925 2.05198C51.8925 1.55198 49.7925 4.75199 47.8925 7.65199Z" fill="#AAD663" stroke="#1E1E1E" stroke-width="3" stroke-miterlimit="10"/>
<path d="M67.293 49.0521C66.193 46.2521 63.593 44.1521 60.693 42.0521C56.693 39.1521 52.093 36.3521 50.193 31.6521C49.193 29.2521 48.293 27.7521 46.693 27.4521C46.193 27.3521 45.993 27.4521 44.093 27.5521C41.993 27.5521 41.693 27.4521 40.993 27.5521C38.793 27.8521 37.593 30.7521 36.993 31.8521C32.793 40.2521 21.693 43.7521 19.693 51.1521C18.493 53.7521 17.793 56.5521 17.793 59.4521C17.793 71.8521 29.493 81.9521 43.993 81.9521C58.493 81.9521 70.193 71.8521 70.193 59.4521C70.293 55.7521 69.193 52.1521 67.293 49.0521Z" fill="#FF933A"/>
<path d="M35.8925 60.4521C36.1925 57.6521 36.8925 55.4521 37.3925 53.9521C38.6925 50.2521 41.5925 41.5521 48.5925 38.2521C50.5925 37.3521 52.6925 36.9521 52.8925 35.5521C52.9925 34.7521 52.3925 34.2521 50.2925 31.5521C48.2925 28.9521 47.9925 28.1521 47.3925 27.6521C47.2925 27.5521 47.0925 27.4521 46.8925 27.3521C45.9925 26.9521 45.2925 27.5521 44.3925 27.7521C42.8925 28.1521 42.2925 27.2521 41.1925 27.3521C39.1925 27.4521 37.7925 30.4521 37.1925 31.6521C32.9925 40.0521 21.8925 43.5521 19.8925 50.9521C18.8925 52.9521 17.7925 55.9521 17.9925 59.5521C19.0925 74.4521 43.0925 83.3521 44.1925 81.7521C44.6925 81.0521 40.0925 78.4521 37.4925 71.4521C35.8925 67.3521 35.6925 63.4521 35.8925 60.4521Z" fill="url(#paint0_linear)"/>
<path d="M63.0925 74.452C60.4925 76.652 53.4925 81.852 44.0925 81.552C31.1925 81.152 17.8926 70.452 17.8926 59.052C17.8926 56.052 18.5925 53.252 19.7925 50.752C21.2925 43.952 31.9926 41.052 35.8926 35.252C36.7926 33.952 37.1925 33.352 37.5925 32.452C38.3925 30.352 38.0925 28.952 39.2925 27.952C39.4925 27.852 39.9925 27.452 40.7925 27.352C41.5925 27.252 42.2925 27.452 42.7925 27.852C44.3925 28.952 44.0925 31.752 44.2925 31.752C44.5925 31.752 44.0925 28.552 45.5925 27.552C46.1925 27.152 47.5926 26.952 48.4926 27.552C49.7926 28.452 50.2925 31.152 50.2925 31.152C50.8925 34.652 55.2925 37.752 60.7925 41.752C63.6925 43.852 66.2926 45.952 67.3926 48.752C68.2926 50.252 70.3926 53.952 70.3926 59.152C70.3926 65.152 67.6926 69.352 66.6926 70.752" stroke="#1E1E1E" stroke-width="3" stroke-miterlimit="10" stroke-linecap="round"/>
<path d="M42.293 70.752C42.393 70.852 43.393 72.452 45.293 72.452C46.593 72.452 47.793 71.752 48.393 70.552" stroke="#1E1E1E" stroke-width="2" stroke-miterlimit="10" stroke-linecap="round"/>
<path d="M35.5182 63.4097C34.9536 64.1753 34.273 64.8134 33.4764 65.3238C32.502 65.9425 31.5004 66.2519 30.4718 66.2519C28.4997 66.2519 27.0341 65.8729 26.0751 65.115C24.0489 63.5141 23.0357 60.7338 23.0357 56.774C23.0357 56.3951 23.0551 55.8305 23.0937 55.0803C23.1324 54.3301 23.1517 53.7656 23.1517 53.3866C23.1517 53.085 23.1595 52.6364 23.1749 52.0409C23.1904 51.4377 23.1981 50.9853 23.1981 50.6836C23.1981 50.0649 23.3103 49.481 23.5346 48.9319C23.8362 48.2049 24.2577 47.8414 24.799 47.8414C25.2244 47.8414 25.5995 47.9807 25.9243 48.2591C26.2801 48.553 26.458 48.9319 26.458 49.3959C26.458 49.8368 26.4502 50.5058 26.4347 51.4029C26.427 52.2923 26.4231 52.9613 26.4231 53.4098C26.4231 53.781 26.4038 54.3417 26.3651 55.0919C26.3265 55.8421 26.3071 56.4028 26.3071 56.774C26.3071 57.9728 26.4463 59.0865 26.7248 60.1151C27.0496 61.3448 27.5252 62.2032 28.1517 62.6904C28.4765 62.9457 29.2499 63.081 30.4718 63.0965C32.5136 63.1274 33.8902 61.3873 34.6017 57.8761C34.9729 56.0587 35.1585 53.5065 35.1585 50.2196C35.1585 49.7865 35.2861 49.3689 35.5414 48.9667C35.8894 48.4331 36.3844 48.1663 37.0263 48.1663C37.5522 48.1663 37.9466 48.3596 38.2095 48.7463C38.4106 49.0325 38.5112 49.3495 38.5112 49.6976C38.5112 52.7524 38.3681 55.1345 38.0819 56.8436C37.6488 59.4809 36.7942 61.6696 35.5182 63.4097Z" fill="#1E1E1E"/>
<path d="M62.0885 63.4396C61.5239 64.2052 60.8433 64.8433 60.0467 65.3537C59.0723 65.9724 58.0707 66.2818 57.0421 66.2818C55.07 66.2818 53.6044 65.9028 52.6454 65.1449C50.6192 63.544 49.606 60.7637 49.606 56.804C49.606 56.425 49.6254 55.8604 49.664 55.1102C49.7027 54.3601 49.722 53.7955 49.722 53.4165C49.722 53.1149 49.7298 52.6663 49.7452 52.0708C49.7607 51.4676 49.7684 51.0152 49.7684 50.7135C49.7684 50.0948 49.8806 49.5109 50.1049 48.9618C50.4065 48.2348 50.828 47.8713 51.3694 47.8713C51.7947 47.8713 52.1698 48.0106 52.4946 48.289C52.8504 48.5829 53.0283 48.9618 53.0283 49.4259C53.0283 49.8667 53.0205 50.5357 53.0051 51.4328C52.9973 52.3222 52.9935 52.9912 52.9935 53.4397C52.9935 53.8109 52.9741 54.3717 52.9355 55.1218C52.8968 55.872 52.8775 56.4327 52.8775 56.804C52.8775 58.0027 53.0167 59.1164 53.2951 60.145C53.6199 61.3747 54.0955 62.2331 54.722 62.7203C55.0468 62.9756 55.8202 63.1109 57.0421 63.1264C59.0839 63.1573 60.4605 61.4172 61.172 57.906C61.5432 56.0886 61.7288 53.5364 61.7288 50.2495C61.7288 49.8164 61.8565 49.3988 62.1117 48.9966C62.4597 48.463 62.9547 48.1962 63.5966 48.1962C64.1225 48.1962 64.5169 48.3895 64.7799 48.7762C64.9809 49.0624 65.0815 49.3795 65.0815 49.7275C65.0815 52.7823 64.9384 55.1644 64.6522 56.8736C64.2192 59.5108 63.3646 61.6995 62.0885 63.4396Z" fill="#1E1E1E"/>
<path d="M12.4187 66.1299C11.4811 66.543 10.0311 66.9125 8.06856 67.2383C6.2729 67.5402 4.79903 67.6911 3.64694 67.6911C1.70032 67.6911 0.727005 66.837 0.727005 65.1288C0.727005 65.2638 0.806459 64.0045 0.965367 61.3507C1.17195 57.9024 1.27524 54.0648 1.27524 49.8378C1.27524 49.3849 1.43017 48.9996 1.74004 48.6818C2.05786 48.3639 2.45513 48.205 2.93186 48.205C3.40858 48.205 3.80585 48.3639 4.12367 48.6818C4.44148 48.9996 4.60039 49.3849 4.60039 49.8378C4.60039 54.0727 4.49313 57.9739 4.2786 61.5414C4.20709 62.177 4.13161 63.1503 4.05216 64.4613C5.93522 64.4296 8.35063 63.9687 11.2984 63.0788C11.4811 63.0232 11.6559 62.9954 11.8228 62.9954C12.3233 62.9954 12.7285 63.1782 13.0384 63.5436C13.3165 63.8694 13.4556 64.2349 13.4556 64.6401C13.4556 65.3234 13.1099 65.82 12.4187 66.1299Z" fill="#1E1E1E"/>
<path d="M81.034 60.2588L81.0225 65.0818C81.0225 65.4179 80.9271 65.7272 80.7361 66.0098C80.4688 66.3993 80.0793 66.594 79.5676 66.594C78.9642 66.594 78.4907 66.3496 78.147 65.8608C77.8797 65.479 77.7461 65.0704 77.7461 64.635C77.7461 62.9395 77.7995 60.3924 77.9064 56.9937C78.0134 53.5951 78.0668 51.048 78.0668 49.3525C78.0668 48.9248 78.2196 48.5582 78.5251 48.2527C78.8306 47.9472 79.2125 47.7944 79.6707 47.7944C80.1289 47.7944 80.507 47.9472 80.8049 48.2527C81.1104 48.5582 81.2631 48.9248 81.2631 49.3525C81.2631 50.0398 81.2287 50.9678 81.16 52.1363C81.076 53.4958 81.0264 54.4237 81.0111 54.9202C81.5457 54.4161 83.5276 52.2929 86.9568 48.5505C87.3082 48.1687 87.713 47.9777 88.1712 47.9777C88.6065 47.9777 88.9846 48.1305 89.3054 48.436C89.6338 48.7415 89.798 49.1119 89.798 49.5472C89.798 50.0207 88.8891 51.2504 87.0714 53.2361C85.7272 54.6949 84.3105 56.1345 82.8212 57.5551C83.6536 58.3418 84.4899 59.1284 85.3301 59.9151C86.3077 60.8163 87.186 61.5571 87.965 62.1376C88.3545 62.4202 88.7746 62.634 89.2252 62.7791C90.0424 63.0388 90.451 63.5391 90.451 64.2799C90.451 64.6083 90.3479 64.9253 90.1417 65.2308C89.8591 65.6432 89.4658 65.8494 88.9617 65.8494C87.8695 65.8494 86.4528 65.1353 84.7114 63.7071C84.1921 63.2794 82.9663 62.1299 81.034 60.2588Z" fill="#1E1E1E"/>
<path d="M34.0682 67C33.1174 67.9508 31.043 71.0624 31.043 72.4454C31.043 73.8283 32.4259 74.952 34.0682 74.952C35.7104 74.952 37.0934 73.8283 37.0934 72.4454C37.0934 71.0624 35.0189 67.9508 34.0682 67Z" fill="white" stroke="#1E1E1E" stroke-width="2" stroke-miterlimit="10"/>
<defs>
<linearGradient id="paint0_linear" x1="17.9688" y1="54.5773" x2="52.903" y2="54.5773" gradientUnits="userSpaceOnUse">
<stop stop-color="#FE8C00"/>
<stop offset="1" stop-color="#F83600"/>
</linearGradient>
</defs>
</svg>
