<svg width="18" height="18" viewBox="0 0 18 18" fill="none" xmlns="http://www.w3.org/2000/svg">
<path d="M7.32153 1.15329C8.54148 1.15217 9.73435 1.51252 10.7492 2.18873C11.7641 2.86495 12.5555 3.82666 13.0231 4.9522C13.4907 6.07773 13.6136 7.31652 13.3763 8.51186C13.139 9.7072 12.5521 10.8054 11.6899 11.6675C10.8276 12.5295 9.72878 13.1168 8.53235 13.355C7.33592 13.5931 6.09566 13.4714 4.96846 13.0054C3.84127 12.5393 2.87778 11.7497 2.1999 10.7365C1.52201 9.72337 1.16018 8.53213 1.16018 7.31351C1.16758 5.68297 1.81891 4.12123 2.97263 2.96772C4.12635 1.81421 5.6892 1.16216 7.32153 1.15329ZM7.32153 0C5.87346 0 4.45792 0.42893 3.25391 1.23255C2.04989 2.03617 1.11147 3.17838 0.557321 4.51475C0.0031724 5.85112 -0.141818 7.32163 0.140684 8.74031C0.423187 10.159 1.12049 11.4621 2.14443 12.485C3.16836 13.5078 4.47293 14.2043 5.89317 14.4865C7.3134 14.7687 8.78552 14.6239 10.1233 14.0703C11.4612 13.5168 12.6046 12.5794 13.4091 11.3767C14.2136 10.174 14.643 8.75999 14.643 7.31351C14.643 5.37385 13.8717 3.51363 12.4986 2.14208C11.1256 0.770529 9.26331 0 7.32153 0Z" fill="black"/>
<path d="M17.8364 17.0405L13.6856 12.8662L12.8859 13.6594L17.0366 17.8337C17.0888 17.8862 17.1507 17.9279 17.219 17.9564C17.2873 17.9849 17.3605 17.9997 17.4345 18C17.5085 18.0003 17.5818 17.986 17.6503 17.9579C17.7188 17.9299 17.781 17.8886 17.8335 17.8365C17.8861 17.7845 17.9278 17.7225 17.9563 17.6544C17.9849 17.5862 17.9997 17.513 18 17.4391C18.0003 17.3652 17.9859 17.2919 17.9579 17.2235C17.9298 17.1551 17.8885 17.0929 17.8364 17.0405Z" fill="black"/>
</svg>
