<svg width="273" height="85" viewBox="0 0 273 85" fill="none" xmlns="http://www.w3.org/2000/svg">
<g filter="url(#filter0_d)">
<path d="M45.0516 19.6953L46.047 52.4552L52.0442 52.2729L52.7389 75.1374L42.6935 75.4426L42.2471 60.7494L14.7348 61.5853L15.1812 76.2785L5.13583 76.5837L4.44115 53.7192L7.88956 53.6145C9.60521 50.8111 11.0346 47.6412 12.1777 44.1049C13.3194 40.5185 14.2043 36.7149 14.8324 32.694C15.4606 28.673 15.8881 24.6332 16.115 20.5744L45.0516 19.6953ZM25.7408 28.6859C25.2792 33.252 24.5859 37.6 23.6609 41.73C22.7344 45.8101 21.3755 49.6531 19.5842 53.2592L34.8771 52.7945L34.1369 28.4308L25.7408 28.6859ZM95.8277 38.562C96.0342 45.3589 94.3945 50.6611 90.9085 54.4687C87.4725 58.2748 82.6809 60.2712 76.5337 60.458C72.7355 60.5734 69.312 59.852 66.2633 58.2939C63.2645 56.7343 60.8677 54.406 59.0728 51.3091C57.2764 48.1622 56.3092 44.3148 56.171 39.7669C55.9645 32.97 57.58 27.6935 61.0175 23.9374C64.455 20.1812 69.2724 18.209 75.4695 18.0208C79.3177 17.9038 82.7412 18.6252 85.7399 20.1849C88.7387 21.7445 91.1355 24.0728 92.9304 27.1697C94.7237 30.2167 95.6895 34.0141 95.8277 38.562ZM67.5657 39.4207C67.6887 43.4688 68.4318 46.5226 69.795 48.5822C71.2066 50.5902 73.4117 51.5487 76.4103 51.4576C79.359 51.368 81.4519 50.279 82.689 48.1904C83.9746 46.0504 84.5559 42.9563 84.4329 38.9082C84.31 34.8601 83.5434 31.8569 82.1333 29.8989C80.7716 27.8893 78.5915 26.9301 75.5929 27.0212C72.6442 27.1107 70.5264 28.2006 69.2392 30.2906C68.0006 32.3292 67.4427 35.3725 67.5657 39.4207ZM148.913 14.889L133.115 57.9886L116.022 58.5079L132.032 17.4278L112.691 18.0154L112.258 3.77197L148.542 2.66959L148.913 14.889ZM152.478 29.1873C152.215 20.5413 153.833 13.689 157.331 8.63043C160.879 3.57035 166.476 0.924152 174.122 0.691834C181.719 0.461034 187.442 2.7883 191.292 7.67363C195.141 12.509 197.196 19.2247 197.457 27.8207C197.72 36.4667 196.078 43.3448 192.531 48.4548C188.983 53.5149 183.411 56.1603 175.815 56.3911C168.168 56.6235 162.421 54.3219 158.572 49.4866C154.772 44.5997 152.74 37.8333 152.478 29.1873ZM181.04 28.3195C180.918 24.3214 180.427 21.3349 179.567 19.3601C178.705 17.3353 177.05 16.3602 174.601 16.4346C172.102 16.5105 170.484 17.5851 169.746 19.6585C169.007 21.6818 168.699 24.6926 168.82 28.6908C168.943 32.7389 169.436 35.7753 170.297 37.8001C171.158 39.7749 172.837 40.7243 175.336 40.6484C177.785 40.574 179.379 39.5251 180.118 37.5017C180.855 35.4284 181.163 32.3676 181.04 28.3195ZM200.915 15.41C200.781 11.012 201.929 7.62559 204.358 5.25073C206.785 2.82589 210.023 1.55198 214.071 1.42899C218.07 1.30751 221.329 2.38403 223.849 4.65855C226.418 6.88156 227.769 10.1921 227.902 14.59C228.036 18.988 226.888 22.3744 224.459 24.7493C222.08 27.1226 218.892 28.37 214.894 28.4915C210.845 28.6145 207.537 27.5645 204.968 25.3415C202.4 23.1184 201.048 19.8079 200.915 15.41ZM256.075 0.903167L229.732 55.0531L213.839 55.536L240.182 1.38602L256.075 0.903167ZM214.215 11.1041C212.516 11.1557 211.706 12.4809 211.785 15.0797C211.862 17.6285 212.751 18.8771 214.45 18.8255C215.349 18.7982 216.014 18.4528 216.444 17.7895C216.924 17.1246 217.145 16.1674 217.107 14.918C217.068 13.6186 216.788 12.6516 216.269 12.0171C215.799 11.3811 215.115 11.0767 214.215 11.1041ZM242.012 41.8491C241.878 37.4512 243.026 34.0647 245.455 31.6899C247.882 29.265 251.095 27.9919 255.093 27.8704C259.141 27.7474 262.426 28.8232 264.946 31.0977C267.465 33.3222 268.791 36.6335 268.924 41.0315C269.058 45.4294 267.936 48.8401 265.558 51.2634C263.179 53.6367 259.966 54.8849 255.918 55.0079C251.92 55.1294 248.636 54.0786 246.067 51.8556C243.497 49.5826 242.145 46.2471 242.012 41.8491ZM255.312 37.5432C253.563 37.5964 252.728 38.9223 252.807 41.5211C252.886 44.1199 253.8 45.3928 255.549 45.3396C256.399 45.3138 257.038 44.9692 257.468 44.3059C257.949 43.641 258.169 42.6588 258.129 41.3594C258.091 40.11 257.813 39.168 257.293 38.5335C256.822 37.8475 256.162 37.5174 255.312 37.5432Z" fill="white"/>
</g>
<defs>
<filter id="filter0_d" x="0.441406" y="0.67627" width="272.494" height="83.9075" filterUnits="userSpaceOnUse" color-interpolation-filters="sRGB">
<feFlood flood-opacity="0" result="BackgroundImageFix"/>
<feColorMatrix in="SourceAlpha" type="matrix" values="0 0 0 0 0 0 0 0 0 0 0 0 0 0 0 0 0 0 127 0"/>
<feOffset dy="4"/>
<feGaussianBlur stdDeviation="2"/>
<feColorMatrix type="matrix" values="0 0 0 0 0 0 0 0 0 0 0 0 0 0 0 0 0 0 0.25 0"/>
<feBlend mode="normal" in2="BackgroundImageFix" result="effect1_dropShadow"/>
<feBlend mode="normal" in="SourceGraphic" in2="effect1_dropShadow" result="shape"/>
</filter>
</defs>
</svg>
