<svg width="20" height="13" viewBox="0 0 20 13" fill="none" xmlns="http://www.w3.org/2000/svg">
<path d="M10 12C13.8504 12 17.1988 9.776 18.9141 6.5C18.0446 4.8361 16.7572 3.44658 15.188 2.47842C13.6189 1.51026 11.8263 0.999442 10 1C8.17365 0.999442 6.38111 1.51026 4.81197 2.47842C3.24282 3.44658 1.95541 4.8361 1.08591 6.5C1.95541 8.1639 3.24282 9.55342 4.81197 10.5216C6.38111 11.4897 8.17365 12.0006 10 12ZM10 6.42059e-07C12.0882 -0.000722144 14.1343 0.608816 15.9032 1.7586C17.6721 2.90838 19.0921 4.55177 20 6.5C19.0921 8.44823 17.6721 10.0916 15.9032 11.2414C14.1343 12.3912 12.0882 13.0007 10 13C7.91177 13.0007 5.86569 12.3912 4.09679 11.2414C2.32789 10.0916 0.907927 8.44823 0 6.5C0.907927 4.55177 2.32789 2.90838 4.09679 1.7586C5.86569 0.608816 7.91177 -0.000722144 10 6.42059e-07ZM10 2C11.152 2 12.2568 2.47411 13.0714 3.31802C13.886 4.16193 14.3436 5.30653 14.3436 6.5C14.3436 7.69347 13.886 8.83807 13.0714 9.68198C12.2568 10.5259 11.152 11 10 11C8.848 11 7.74318 10.5259 6.92859 9.68198C6.114 8.83807 5.65637 7.69347 5.65637 6.5C5.65637 5.30653 6.114 4.16193 6.92859 3.31802C7.74318 2.47411 8.848 2 10 2ZM10 3C9.104 3 8.24469 3.36875 7.61113 4.02513C6.97756 4.6815 6.62162 5.57174 6.62162 6.5C6.62162 7.42826 6.97756 8.3185 7.61113 8.97487C8.24469 9.63125 9.104 10 10 10C10.896 10 11.7553 9.63125 12.3889 8.97487C13.0224 8.3185 13.3784 7.42826 13.3784 6.5C13.3784 5.57174 13.0224 4.6815 12.3889 4.02513C11.7553 3.36875 10.896 3 10 3Z" fill="black"/>
</svg>
