<svg width="428" height="322" viewBox="0 0 428 322" fill="none" xmlns="http://www.w3.org/2000/svg">
<g filter="url(#filter0_d)">
<path d="M195.296 69.0971C197.418 72.2928 199.367 76.8926 203.007 86.8148C209.57 103.637 208.842 106.146 207.307 107.717C205.73 108.948 198.632 104.637 191.628 95.4737C187.977 91.0835 187.851 90.062 184.97 83.503C183.572 80.5641 180.219 75.7915 179.287 73.8321C176.83 67.9123 171.409 54.7524 174.646 52.9714C177.161 50.9337 188.55 59.2114 195.296 69.0971Z" fill="#72AE0F"/>
<path d="M184.97 83.5029C198.118 106.082 194.911 113.736 196.273 113.568C200.7 113.024 200.754 85.3634 200.55 80.8948C200.513 77.7882 199.497 75.148 199.497 75.148C198.947 73.4873 198.439 72.167 197.591 70.8887C193.73 64.796 185.417 50.6092 178.392 52.5105C175.369 53.228 173.404 56.9264 173.1 60.0749C172.88 63.9043 172.576 67.0528 176.274 69.0175" stroke="#1D1D1B" stroke-width="7" stroke-miterlimit="10" stroke-linecap="round"/>
<path d="M208.841 41.5057C204.696 49.966 199.955 59.1911 197.628 73.9955C192.807 102.242 199.606 129.405 203.053 129.327C204.074 129.201 204.42 126.393 206.443 114.737C211.866 82.9596 209.121 94.3589 214.78 72.9225C220.91 49.6997 239.665 33.5655 235.511 25.0891C234.113 22.1501 230.713 19.803 227.607 19.8396C219.906 19.0586 214.095 30.8348 208.841 41.5057Z" fill="#AAD663" stroke="#1D1D1B" stroke-width="7" stroke-miterlimit="10"/>
<path d="M292.244 174.352C287.325 165.279 277.592 159.217 266.837 153.281C252.002 145.082 235.165 137.474 226.726 122.266C222.316 114.513 218.623 109.782 213.049 109.431C211.304 109.3 210.665 109.724 204.237 110.86C197.086 111.74 196.023 111.525 193.681 112.159C186.316 114.102 183.444 124.48 181.862 128.477C171.079 158.84 134.748 175.408 131.038 201.444C128.041 210.8 126.83 220.628 128.045 230.503C133.24 272.727 177.311 302.218 226.686 296.143C276.061 290.069 311.67 250.775 306.476 208.551C305.266 195.91 300.012 184.113 292.244 174.352Z" fill="#FF933A"/>
<path d="M190.098 226.326C189.946 216.666 191.408 208.881 192.482 203.564C195.359 190.42 201.59 159.581 224.043 145.411C230.477 141.508 237.46 139.267 237.554 134.416C237.56 131.65 235.307 130.198 227.025 121.884C219.126 113.869 217.769 111.27 215.516 109.819C215.134 109.52 214.411 109.264 213.688 109.007C210.456 108.022 208.324 110.358 205.343 111.416C200.403 113.407 197.982 110.593 194.279 111.395C187.51 112.573 184 123.375 182.459 127.713C171.677 158.075 135.346 174.644 131.635 200.68C129.068 207.909 126.579 218.585 128.768 230.76C138.756 281.036 224.208 301.288 227.284 295.379C228.693 292.786 211.94 285.86 200.154 263.113C192.988 249.822 190.673 236.625 190.098 226.326Z" fill="url(#paint0_linear)"/>
<path d="M288.526 263.602C280.595 272.182 258.937 292.822 226.803 295.738C182.708 299.78 132.937 268.917 128.161 230.098C126.905 219.882 128.115 210.054 131.154 201.039C133.413 177.255 168.634 162.898 179.484 141.514C182.004 136.71 183.115 134.5 184.1 131.267C185.944 123.781 184.336 119.14 188.003 115.232C188.643 114.808 190.178 113.236 192.86 112.56C195.542 111.885 198.009 112.273 199.88 113.425C205.789 116.501 205.94 126.161 206.621 126.077C207.643 125.951 204.6 115.264 209.288 111.231C211.164 109.617 215.847 108.35 219.163 110.016C223.967 112.536 226.801 121.52 226.801 121.52C230.31 133.187 246.592 141.9 266.996 153.216C277.75 159.152 287.484 165.214 292.402 174.288C296.095 179.018 304.796 190.738 306.975 208.445C309.488 228.876 302.054 244.308 299.235 249.495" stroke="#1D1D1B" stroke-width="7" stroke-miterlimit="10" stroke-linecap="round"/>
<path d="M227.211 179.588C232.157 174.832 239.826 169.74 248.376 171.799C250.885 172.528 253.394 173.256 255.605 174.367C258.156 175.436 266.617 179.58 264.568 182.597C262.776 184.892 257.506 181.392 256.019 180.538C252.278 178.233 247.003 177.499 242.236 178.086C239.171 178.463 236.19 179.521 233.251 180.919C230.952 181.893 228.735 183.549 226.011 183.884C223.245 183.879 225.037 181.584 227.211 179.588Z" fill="#1D1D1B" stroke="#1D1D1B" stroke-width="0.5" stroke-miterlimit="10" stroke-linecap="round"/>
<path d="M192.562 184.542C194.72 190.844 197.758 204.298 191.461 203.69C186.228 203.296 180.187 201.965 174.482 203.359C172.78 203.568 160.935 211.248 161.616 211.164C155.193 209.534 150.819 204.887 148.661 198.585C144.728 186.279 151.434 173.356 163.399 169.464C174.385 166.038 186.119 171.508 191.122 181.263C191.546 181.902 192.012 182.882 192.562 184.542Z" fill="white" stroke="#1D1D1B" stroke-width="1.5" stroke-miterlimit="10"/>
<path d="M171.93 202.29C176.82 201.688 180.296 197.237 179.695 192.347C179.093 187.457 174.642 183.981 169.752 184.583C164.862 185.184 161.386 189.636 161.988 194.525C162.589 199.415 167.041 202.891 171.93 202.29Z" fill="#1D1D1B" stroke="#1D1D1B" stroke-width="0.75" stroke-miterlimit="10" stroke-linecap="round"/>
<path d="M167.871 188.962C168.165 191.346 166.672 193.258 164.288 193.551C161.904 193.844 159.992 192.351 159.699 189.968C159.406 187.584 160.899 185.672 163.283 185.379C165.666 185.085 167.578 186.579 167.871 188.962Z" fill="white"/>
<path d="M173.412 228.379C178.147 244.388 203.806 245.034 217.212 244.422C231.98 243.642 254.244 239.175 251.516 219.807C250.971 215.38 246.885 215.883 247.43 220.31C249.483 236.995 179.258 242.178 176.351 226.98C175.382 221.914 171.846 224.078 173.412 228.379Z" fill="#1D1D1B"/>
<path d="M109.912 254.511C93.6457 259.969 76.8928 253.042 72.451 239.416C68.0093 225.79 120.915 220.318 125.657 211.093" stroke="#1D1D1B" stroke-width="7" stroke-miterlimit="10" stroke-linecap="round"/>
<path d="M330.137 229.492C347.242 230.844 361.816 220.064 362.823 205.767C363.829 191.471 311.175 198.986 304.339 191.185" stroke="#1D1D1B" stroke-width="7" stroke-miterlimit="10" stroke-linecap="round"/>
<path d="M378.934 170.947C373.543 186.128 373.537 188.894 370.556 189.952C362.934 192.618 347.088 179.013 345.119 163.008C343.742 149.005 352.627 131.32 366.29 129.985C374.504 129.32 384.112 134.36 387.077 141.6C389.449 146.839 386.337 149.641 378.934 170.947Z" fill="#FF933A" stroke="#1D1D1B" stroke-width="7" stroke-miterlimit="10" stroke-linecap="round"/>
<path d="M406.295 193.852C403.283 189.037 399.297 181.923 393.22 177.486C391.69 176.291 389.48 175.18 386.546 173.813C380.04 171.502 370.511 169.909 361.275 170.7C355.444 171.072 337.994 172.527 330.308 185.917C326.552 191.91 324.66 201.821 328.526 205.148C328.908 205.446 329.291 205.745 329.631 205.703C329.034 206.468 328.437 207.233 327.457 207.699C323.79 211.607 319.269 217.003 320.065 223.472C320.52 229.984 325.874 234.165 330.08 237.45C330.845 238.047 331.992 238.943 332.757 239.54C331.819 240.347 331.264 241.452 330.751 242.898C329.037 248.639 334.642 254.863 336.256 256.739C347.466 269.187 367.855 266.332 371.559 265.531C376.667 264.903 382.67 263.127 387.909 260.754C389.91 260.162 391.529 259.272 393.446 257.999C395.704 256.684 397.622 255.411 398.816 253.882C407.214 246.281 412.726 234.887 413.853 224.378C415.54 209.998 408.966 198.708 406.295 193.852Z" fill="#FF933A" stroke="#1D1D1B" stroke-width="7" stroke-miterlimit="10" stroke-linecap="round"/>
<path d="M376.516 232.774C371.88 231.616 363.713 229.855 353.539 231.452C343.706 233.008 336.55 236.654 332.715 239.199" fill="#FF933A"/>
<path d="M376.516 232.774C371.88 231.616 363.713 229.855 353.539 231.452C343.706 233.008 336.55 236.654 332.715 239.199" stroke="#1D1D1B" stroke-width="7" stroke-miterlimit="10" stroke-linecap="round"/>
<path d="M328.651 206.17C333.848 203.456 343.77 199.816 356.155 199.329C369.22 198.759 379.681 202.311 385.465 204.365" fill="#FF933A"/>
<path d="M328.651 206.17C333.848 203.456 343.77 199.816 356.155 199.329C369.22 198.759 379.681 202.311 385.465 204.365" stroke="#1D1D1B" stroke-width="7" stroke-miterlimit="10" stroke-linecap="round"/>
<path d="M49.5646 213.541C58.4749 226.963 59.1506 229.645 62.299 229.949C70.3403 230.689 82.4164 213.648 80.4474 197.643C78.3893 183.724 65.482 168.72 51.9032 170.736C43.7727 172.082 35.6733 179.301 34.5518 187.043C33.5195 192.701 37.2179 194.666 49.5646 213.541Z" fill="#FF933A" stroke="#1D1D1B" stroke-width="7" stroke-miterlimit="10" stroke-linecap="round"/>
<path d="M28.9539 242.693C30.7091 237.292 32.8522 229.424 37.6721 223.646C38.8666 222.116 40.7421 220.503 43.2567 218.465C49.009 214.646 57.8679 210.791 67.0199 209.319C72.7668 208.267 90.0494 205.449 100.751 216.577C105.848 221.48 110.086 230.638 107.142 234.803C106.843 235.185 106.544 235.567 106.204 235.609C106.969 236.206 107.734 236.804 108.797 237.019C113.302 239.921 118.996 244.06 119.792 250.53C120.929 256.958 116.748 262.311 113.463 266.518C112.866 267.283 111.97 268.43 111.373 269.195C112.478 269.75 113.285 270.688 114.134 271.966C117.187 277.121 113.258 284.518 112.147 286.729C104.288 301.522 83.8156 303.695 80.028 303.816C74.9203 304.444 68.6653 304.176 63.0076 303.144C60.9226 303.055 59.1362 302.584 56.9674 301.813C54.4581 301.085 52.2894 300.315 50.7598 299.12C40.7699 293.782 32.6609 284.063 29.0205 274.141C23.8559 260.258 27.4973 247.712 28.9539 242.693Z" fill="#FF933A" stroke="#1D1D1B" stroke-width="7" stroke-miterlimit="10" stroke-linecap="round"/>
<path d="M67.2368 272.897C71.454 270.65 78.9508 266.962 89.2082 266.046C99.1251 265.172 106.952 266.974 111.289 268.514" fill="#FF933A"/>
<path d="M67.2368 272.897C71.454 270.65 78.9508 266.962 89.2082 266.046C99.1251 265.172 106.952 266.974 111.289 268.514" stroke="#1D1D1B" stroke-width="7" stroke-miterlimit="10" stroke-linecap="round"/>
<path d="M106.885 235.525C101.186 234.152 90.6768 233.025 78.5439 235.555C65.7299 238.168 56.4415 244.15 51.3284 247.545" fill="#FF933A"/>
<path d="M106.885 235.525C101.186 234.152 90.6768 233.025 78.5439 235.555C65.7299 238.168 56.4415 244.15 51.3284 247.545" stroke="#1D1D1B" stroke-width="7" stroke-miterlimit="10" stroke-linecap="round"/>
</g>
<defs>
<filter id="filter0_d" x="12.6729" y="14.8384" width="414.59" height="306.864" filterUnits="userSpaceOnUse" color-interpolation-filters="sRGB">
<feFlood flood-opacity="0" result="BackgroundImageFix"/>
<feColorMatrix in="SourceAlpha" type="matrix" values="0 0 0 0 0 0 0 0 0 0 0 0 0 0 0 0 0 0 127 0"/>
<feOffset dy="4"/>
<feGaussianBlur stdDeviation="2"/>
<feColorMatrix type="matrix" values="0 0 0 0 0 0 0 0 0 0 0 0 0 0 0 0 0 0 0.25 0"/>
<feBlend mode="normal" in2="BackgroundImageFix" result="effect1_dropShadow"/>
<feBlend mode="normal" in="SourceGraphic" in2="effect1_dropShadow" result="shape"/>
</filter>
<linearGradient id="paint0_linear" x1="126.514" y1="213.696" x2="245.471" y2="199.061" gradientUnits="userSpaceOnUse">
<stop stop-color="#FE8C00"/>
<stop offset="1" stop-color="#F83600"/>
</linearGradient>
</defs>
</svg>
